# xmcd
#
# Track frame offsets:
#	183
#	12358
#	25153
#	35990
#	48650
#	58843
#	72193
#	87650
#	98893
#	111795
#
# Disc length: 1668 seconds
#
# Revision: 0
# Processed by: cddbd v1.5PL3 Copyright (c) Steve Scherf et al.
# Submitted via: dBpowerAMP V4.0
#
DISCID=8d06820a
DTITLE=Howlin' Wolf - How Many More Years
DYEAR=1900
DGENRE=Blues
TTITLE0=How Many More Years
TTITLE1=I Asked For Water
TTITLE2=Wang Dang Doodle
TTITLE3=Spoonful
TTITLE4=Shake For Me
TTITLE5=Moanin' At Midnight
TTITLE6=Goin' Down Slow
TTITLE7=You'll Be Mine
TTITLE8=I Ain't Superstitious
TTITLE9=Highway 49
EXTD=
EXTT0=
EXTT1=
EXTT2=
EXTT3=
EXTT4=
EXTT5=
EXTT6=
EXTT7=
EXTT8=
EXTT9=
PLAYORDER=
